trial_2_ID.mot
nRows=12
nColumns=42

name trial_2_ID.mot
datacolumns 42
datarows 12
range 3.6100000000 3.7200000000
endheader
time	pelvis_tilt_moment	pelvis_list_moment	pelvis_rotation_moment	pelvis_tx_force	pelvis_ty_force	pelvis_tz_force	hip_flexion_r_moment	hip_adduction_r_moment	hip_rotation_r_moment	knee_angle_r_moment	knee_vv_r_moment	knee_rot_r_moment	ankle_angle_r_moment	subtalar_angle_r_moment	mtp_angle_r_moment	hip_flexion_l_moment	hip_adduction_l_moment	hip_rotation_l_moment	knee_angle_l_moment	knee_vv_l_moment	knee_rot_l_moment	ankle_angle_l_moment	subtalar_angle_l_moment	mtp_angle_l_moment	lumbar_extension_moment	lumbar_bending_moment	lumbar_rotation_moment	arm_flex_r_moment	arm_add_r_moment	arm_rot_r_moment	elbow_flex_r_moment	pro_sup_r_moment	wrist_flex_r_moment	wrist_dev_r_moment	arm_flex_l_moment	arm_add_l_moment	arm_rot_l_moment	elbow_flex_l_moment	pro_sup_l_moment	wrist_flex_l_moment	wrist_dev_l_moment
        3.6100000000	       -7.6379016900	        3.3699800400	        4.5380255400	      -23.0838009500	       -0.9077086600	       15.2458280200	        9.0160052600	      -33.7610417300	        2.3528705400	      -22.0613881300	      -10.8777334900	        1.0424153900	      -72.5907175800	       18.8602834100	        0.0214732100	      -12.6348277100	        1.0018059700	       -1.4366058300	       -4.2572329600	       -1.3111467400	        1.3612670000	        7.5078497300	       -1.3308230800	        0.0360607600	       21.4235009100	        1.1402654200	       -2.8231212900	       -0.9107059700	       -1.6143391300	        0.1279917000	       -0.0677488500	        0.0169896900	        0.0520090600	        0.0483067200	        0.1505842100	       -1.7769610400	       -0.0542453700	       -0.3154487100	       -0.0105101700	       -0.0381391100	        0.0031425100	
        3.6200000000	       -5.9199208700	        3.2719841300	        5.0359392000	      -25.7300385700	       -0.0619161300	       14.9365319200	        9.8083095400	      -31.0345489900	        2.8548796800	      -20.4074198400	       -9.8285870300	        1.5915945400	      -70.2558616300	       18.2778119300	        0.0190327600	      -14.1463755700	       -1.0361140200	       -1.5463160700	       -2.9746931200	       -0.2861628200	        1.6346376300	        8.2370294600	       -1.3265737200	        0.0415199000	       23.9862118900	        1.9426249700	       -2.5692116600	       -0.9753135800	       -1.6415657500	        0.1456098500	       -0.0653523600	        0.0200154100	        0.0551813900	        0.0483624500	        0.0499661600	       -1.7936923400	       -0.0587404200	       -0.3381830700	       -0.0106033400	       -0.0369536000	        0.0052154700	
        3.6300000000	       -3.9938457600	        3.8933822300	        5.0196533400	      -28.0698280400	        0.4683996000	       13.4276193100	       10.6429681100	      -27.4190648000	        3.2931923200	      -18.2857379800	       -8.4779495000	        2.1185948200	      -67.0382147200	       17.4129208300	        0.0165260100	      -15.8996402600	       -3.5373779300	       -1.5323000300	       -1.5950331000	        1.0713349000	        1.8668698100	        8.6311054200	       -1.1975514700	        0.0461034100	       26.6435135100	        2.8918510100	       -2.3874018200	       -1.0567873000	       -1.6710482800	        0.1604381000	       -0.0677367400	        0.0229470300	        0.0573790500	        0.0478367800	       -0.0326266800	       -1.8294505100	       -0.0649165400	       -0.3628710200	       -0.0110488400	       -0.0365738200	        0.0073087000	
        3.6400000000	       -1.9541352200	        5.4025435000	        4.3461198800	      -29.9354843800	        1.0395576600	       10.5129162900	       11.4213030900	      -22.8645256400	        3.6354672000	      -15.7203623200	       -6.8013647300	        2.6114128400	      -62.9018241000	       16.2790723200	        0.0144426800	      -17.6154924100	       -6.4714077800	       -1.3723296200	       -0.0167668900	        2.7401944200	        2.0444018200	        8.7387570600	       -0.9685707800	        0.0495753600	       29.1358062600	        3.9639749100	       -2.3071199600	       -1.1503782100	       -1.7100865400	        0.1693935200	       -0.0776336900	        0.0254624500	        0.0579101100	        0.0467904700	       -0.0927384200	       -1.8807747000	       -0.0730028200	       -0.3877866400	       -0.0118789200	       -0.0367867200	        0.0092702900	
        3.6500000000	       -0.0235616800	        7.7886002100	        3.0007405600	      -31.2127708200	        2.0539910500	        6.1861490300	       12.0237230200	      -17.4795477600	        3.8433976800	      -12.8035508400	       -4.8279530400	        3.0533694100	      -57.8576675200	       14.9104690200	        0.0133931900	      -19.0680768900	       -9.8156611500	       -1.0599867800	        1.8216860000	        4.6913225600	        2.1616286000	        8.6348509400	       -0.6743709100	        0.0517859700	       31.1805653600	        5.0860033000	       -2.3441835200	       -1.2446945100	       -1.7646716700	        0.1694456700	       -0.0956834400	        0.0271765400	        0.0561453500	        0.0451590800	       -0.1288599100	       -1.9384556300	       -0.0827512400	       -0.4097686600	       -0.0130367000	       -0.0371582500	        0.0108566600	
        3.6600000000	        1.3692007200	       10.8005609500	        1.1129120000	      -31.9643026600	        3.8799329500	        0.7169790000	       12.2240031200	      -11.5615886100	        3.8781834200	       -9.7379559700	       -2.6549251700	        3.4224927700	      -51.9785741700	       13.3597133800	        0.0140304600	      -20.1324532900	      -13.5335818100	       -0.6056292500	        3.9127004400	        6.8815832500	        2.2204520600	        8.3953772800	       -0.3498527800	        0.0526753500	       32.5268786800	        6.1372039800	       -2.4963786700	       -1.3221265400	       -1.8378046900	        0.1581454200	       -0.1198906200	        0.0276824400	        0.0516274100	        0.0427223000	       -0.1422154700	       -1.9893527000	       -0.0934928800	       -0.4246090500	       -0.0143984900	       -0.0371446700	        0.0117478700	
        3.6700000000	        1.9640848500	       13.9535642800	       -1.0288824200	      -32.0078228100	        6.6917932200	       -5.3228117800	       11.9379197800	       -5.5806211100	        3.7131639900	       -6.7333181600	       -0.4502512600	        3.6937101700	      -45.4079523500	       11.6927258500	        0.0168588100	      -20.7665948100	      -17.5554969300	       -0.0358118400	        6.1757872200	        9.2482727300	        2.2283714200	        8.0783047700	       -0.0223892700	        0.0522772800	       33.0075490600	        6.9693383100	       -2.7450397400	       -1.3624166800	       -1.9286287400	        0.1341933000	       -0.1461698100	        0.0266207200	        0.0441706700	        0.0391711500	       -0.1357495000	       -2.0197317200	       -0.1042745700	       -0.4279515200	       -0.0158094200	       -0.0362611800	        0.0116046100	
        3.6800000000	        1.5878538700	       16.6091236800	       -3.0500754300	      -31.1701161300	       10.4076933500	      -11.1175558600	       11.0777566200	       -0.1242477400	        3.3488457300	       -4.0397890300	        1.5646513000	        3.8417515100	      -38.3614052700	        9.9808641300	        0.0221177600	      -20.9702496100	      -21.7717940800	        0.6100496600	        8.4876065300	       11.7088377000	        2.1952197500	        7.7141400300	        0.2927053200	        0.0507204000	       32.5693333300	        7.4434763400	       -3.0607702400	       -1.3487626600	       -2.0323728700	        0.0979503200	       -0.1698424900	        0.0237695200	        0.0339480900	        0.0342636100	       -0.1131854300	       -2.0188660300	       -0.1140226100	       -0.4165073400	       -0.0171132300	       -0.0342339800	        0.0101666300	
        3.6900000000	        0.2040385100	       18.1319905400	       -4.5726467500	      -29.3405128100	       14.5907805100	      -15.7492173900	        9.6267503300	        4.2146406300	        2.8260983300	       -1.8830391400	        3.1548040600	        3.8464810400	      -31.1151763100	        8.2926407200	        0.0296424600	      -20.8096640200	      -26.0400912600	        1.2855931000	       10.6863569400	       14.1692772100	        2.1302152100	        7.3053437800	        0.5932642300	        0.0482077100	       31.2709696800	        7.4736424800	       -3.4092692900	       -1.2738484000	       -2.1407878600	        0.0516909500	       -0.1872868000	        0.0191275100	        0.0215489800	        0.0279891300	       -0.0786220900	       -1.9817807900	       -0.1217005500	       -0.3892370300	       -0.0181671200	       -0.0310792400	        0.0073674600	
        3.7000000000	       -1.8139483900	       18.0888960200	       -5.2773105000	      -26.1380322600	       18.4889354300	      -18.4025869100	        7.8783393000	        6.9727180900	        2.2276893800	       -0.3322825800	        4.1277256100	        3.6987504100	      -23.9786076800	        6.6858667500	        0.0388558900	      -20.3744311900	      -30.2194323700	        1.9450938800	       12.6088778200	       16.5402361100	        2.0406356400	        6.8341969800	        0.8881465200	        0.0450034500	       29.2551100300	        7.0630161900	       -3.7541177700	       -1.1427470900	       -2.2429053400	       -0.0006116900	       -0.1968266700	        0.0129529500	        0.0079723800	        0.0206416100	       -0.0364919900	       -1.9105157100	       -0.1264535800	       -0.3480908100	       -0.0188467400	       -0.0270952100	        0.0034207200	
        3.7100000000	       -3.1724793400	       16.3920166400	       -4.8644487200	      -20.1228805800	       21.2163136200	      -18.5307026300	        6.9141564700	        7.9238400000	        1.6625187300	        0.9145056500	        4.3880311900	        3.4053029700	      -17.2457577200	        5.2016078100	        0.0491363700	      -19.7619325400	      -34.2067401400	        2.5512187200	       14.1191734000	       18.7541793800	        1.9318312800	        6.2735157000	        1.1932990500	        0.0414065800	       26.7130456800	        6.3187379100	       -4.0564665300	       -0.9713876000	       -2.3263559600	       -0.0540138400	       -0.1985497700	        0.0057360400	       -0.0054814600	        0.0127577700	        0.0083630700	       -1.8136905800	       -0.1277340100	       -0.2980027600	       -0.0190497300	       -0.0227829400	       -0.0011633800	
        3.7200000000	       -4.2123254900	       13.4388012800	       -3.5621638300	      -12.3365692300	       22.2234047900	      -16.2189150200	        6.3859731600	        7.2265714200	        1.2232232800	        1.7088266700	        3.9858777300	        2.9861510800	      -11.1996144100	        3.8692789900	        0.0595172800	      -19.0588035700	      -37.9576949100	        3.0805702500	       15.1321341400	       20.7752897500	        1.8077977500	        5.5975882500	        1.5269178800	        0.0377198800	       23.8605509800	        5.4365237100	       -4.2743308800	       -0.7817516000	       -2.3795461900	       -0.1036357800	       -0.1935128000	       -0.0018889400	       -0.0174281300	        0.0049643200	        0.0504831300	       -1.7044984300	       -0.1253880500	       -0.2460623900	       -0.0187015300	       -0.0187202800	       -0.0056476900	
